<?xml version="1.0" encoding="UTF-8"?>
<!DOCTYPE svg PUBLIC "-//W3C//DTD SVG 1.1//EN" "http://www.w3.org/Graphics/SVG/1.1/DTD/svg11.dtd">
<svg xmlns="http://www.w3.org/2000/svg" version="1.1" width="438px" height="566px" style="shape-rendering:geometricPrecision; text-rendering:geometricPrecision; image-rendering:optimizeQuality; fill-rule:evenodd; clip-rule:evenodd" xmlns:xlink="http://www.w3.org/1999/xlink">
<g><path style="opacity:1" fill="#234b99" d="M 206.5,3.5 C 231.196,-0.909438 248.029,8.4239 257,31.5C 261.79,55.7537 252.623,72.2537 229.5,81C 204.885,86.0393 188.051,76.8726 179,53.5C 174.888,29.3815 184.055,12.7149 206.5,3.5 Z"/></g>
<g><path style="opacity:1" fill="#244b99" d="M 326.5,87.5 C 342.035,85.3513 353.535,91.0179 361,104.5C 367.467,123.228 361.967,137.228 344.5,146.5C 343.749,147.376 343.249,148.376 343,149.5C 342.891,182.85 342.225,216.184 341,249.5C 336.095,268.071 324.595,280.571 306.5,287C 295.889,288.119 285.222,288.619 274.5,288.5C 264.097,288.631 253.764,288.131 243.5,287C 234.827,280.978 232.66,273.145 237,263.5C 239.365,260.131 242.532,257.964 246.5,257C 263.544,256.321 280.544,255.321 297.5,254C 303.641,251.859 307.807,247.693 310,241.5C 311.102,237.584 311.769,233.584 312,229.5C 312.667,199.833 312.667,170.167 312,140.5C 299.943,125.993 299.61,111.326 311,96.5C 315.6,92.3738 320.766,89.3738 326.5,87.5 Z"/></g>
<g><path style="opacity:1" fill="#244b99" d="M 95.5,93.5 C 116.997,94.1608 124.83,104.827 119,125.5C 110.545,136.392 100.045,138.892 87.5,133C 74.2337,120.92 74.2337,108.92 87.5,97C 90.1579,95.522 92.8245,94.3554 95.5,93.5 Z"/></g>
<g><path style="opacity:1" fill="#244b99" d="M 214.5,112.5 C 223.589,111.449 229.756,115.116 233,123.5C 233.667,141.833 233.667,160.167 233,178.5C 230.436,202.413 217.936,218.913 195.5,228C 190.367,230.156 185.033,231.489 179.5,232C 141.163,232.461 102.83,233.128 64.5,234C 53.8535,250.997 39.1868,255.997 20.5,249C 4.11331,238.507 -0.720021,224.007 6,205.5C 15.2062,188.649 29.0396,183.149 47.5,189C 52.7235,191.557 57.3902,194.891 61.5,199C 101.167,199.667 140.833,199.667 180.5,199C 190.333,194.5 197.5,187.333 202,177.5C 202.096,158.8 202.762,140.133 204,121.5C 206.505,117.189 210.005,114.189 214.5,112.5 Z"/></g>
<g><path style="opacity:1" fill="#244b99" d="M 393.5,187.5 C 414.082,185.034 427.249,193.701 433,213.5C 435.106,231.79 427.606,244.29 410.5,251C 393.072,255.415 380.072,249.748 371.5,234C 363.173,233.5 354.84,233.334 346.5,233.5C 346.5,222.167 346.5,210.833 346.5,199.5C 355.839,199.666 365.173,199.5 374.5,199C 380.025,193.582 386.358,189.749 393.5,187.5 Z"/></g>
<g><path style="opacity:1" fill="#244b99" d="M 161.5,264.5 C 170.874,264.269 180.208,264.769 189.5,266C 198.902,269.73 202.735,276.563 201,286.5C 198.549,292.616 194.049,296.116 187.5,297C 171.455,297.078 155.455,297.745 139.5,299C 133.408,301.46 128.908,305.627 126,311.5C 124.752,320.425 124.085,329.425 124,338.5C 123.5,365.831 123.333,393.165 123.5,420.5C 148.5,420.5 173.5,420.5 198.5,420.5C 198.5,431.5 198.5,442.5 198.5,453.5C 175.157,453.5 151.823,454 128.5,455C 120.091,470.199 107.424,475.533 90.5,471C 71.933,459.364 68.433,444.197 80,425.5C 83.5605,421.14 88.0605,418.474 93.5,417.5C 93.3333,382.832 93.5,348.165 94,313.5C 97.2613,287.906 111.428,272.072 136.5,266C 145.01,265.829 153.343,265.329 161.5,264.5 Z"/></g>
<g><path style="opacity:1" fill="#234b99" d="M 32.5,304.5 C 46.127,304.969 56.7937,310.802 64.5,322C 72.4758,322.934 80.4758,323.434 88.5,323.5C 88.5,334.5 88.5,345.5 88.5,356.5C 79.8269,356.334 71.1603,356.5 62.5,357C 48.713,372.111 33.0463,374.444 15.5,364C 4.67044,354.51 0.83711,342.676 4,328.5C 8.56355,314.422 18.0635,306.422 32.5,304.5 Z"/></g>
<g><path style="opacity:1" fill="#244b99" d="M 396.5,304.5 C 418.644,304.65 430.977,315.65 433.5,337.5C 432.787,354.786 424.12,365.619 407.5,370C 393.822,371.829 382.488,367.495 373.5,357C 334.5,356.333 295.5,356.333 256.5,357C 244.801,361.364 237.301,369.53 234,381.5C 233.757,397.845 233.257,414.178 232.5,430.5C 233.216,452.826 233.383,475.159 233,497.5C 253.072,512.105 256.405,529.771 243,550.5C 230.369,562.488 216.202,564.654 200.5,557C 182.691,542.613 179.857,525.779 192,506.5C 194.727,503.269 197.894,500.603 201.5,498.5C 202.157,456.494 202.99,414.494 204,372.5C 211.082,346.076 227.749,330.076 254,324.5C 263.624,323.809 273.29,323.142 283,322.5C 285.959,323.098 288.959,323.431 292,323.5C 318.826,322.735 345.659,322.235 372.5,322C 378.322,312.946 386.322,307.112 396.5,304.5 Z"/></g>
<g><path style="opacity:1" fill="#254b99" d="M 331.5,416.5 C 346.888,416.736 357.055,424.069 362,438.5C 364.476,453.047 359.309,463.88 346.5,471C 328.525,476.456 314.858,471.123 305.5,455C 282.169,454.5 258.836,454.333 235.5,454.5C 235.5,443.167 235.5,431.833 235.5,420.5C 262.835,420.667 290.169,420.5 317.5,420C 322.295,418.801 326.962,417.634 331.5,416.5 Z"/></g>
</svg>
